Land_normalized_Motion_pl05
version=1
nRows=8
nColumns=43
inDegrees=yes
endheader
time		pelvis_tilt		pelvis_list		pelvis_rotation		pelvis_tx		pelvis_ty		pelvis_tz		hip_flexion_r		hip_adduction_r		hip_rotation_r		knee_angle_r		ankle_angle_r		subtalar_angle_r		mtp_angle_r		hip_flexion_l		hip_adduction_l		hip_rotation_l		knee_angle_l		ankle_angle_l		subtalar_angle_l		mtp_angle_l		lumbar_extension		lumbar_bending		lumbar_rotation		neck_flexion		neck_lateral_bending		neck_rotation		arm_flex_r		arm_add_r		arm_rot_r		elbow_flex_r		pro_sup_r		wrist_flex_r		wrist_dev_r		hand_finger_flex_r		arm_flex_l		arm_add_l		arm_rot_l		elbow_flex_l		pro_sup_l		wrist_flex_l		wrist_dev_l		hand_finger_flex_l		
3.484545		-0.007996		0.858458		95.526893		-0.023036		0.654179		0.485138		61.381878		-7.215138		-7.261923		-90.575114		7.770409		-16.254379		16.760945		62.106010		-0.867015		-1.855054		-89.839930		6.788363		-3.281997		28.846677		-42.352800		1.507484		9.733480		-4.389328		4.684185		-12.793886		-15.842880		-17.934729		-24.504873		49.484044		120.297677		-16.557396		-6.863423		-29.531903		-42.807137		-20.620498		-24.532362		65.807223		131.124280		-32.552966		-19.179881		-12.825737		
3.487727		-0.213297		1.003358		95.384300		-0.022355		0.646753		0.484470		62.596968		-6.960065		-6.644714		-92.480976		7.216399		-16.743244		16.634398		63.349412		-0.772181		-1.971704		-91.905525		5.643903		-3.859424		28.931037		-43.560296		1.158365		9.855120		-3.109943		4.703986		-12.781073		-13.772505		-18.356585		-24.775833		50.010309		120.205161		-16.791324		-6.974540		-29.769366		-39.640577		-20.828347		-23.727469		65.967371		131.539869		-32.892715		-19.424503		-12.900592		
3.490909		-0.358893		1.380755		95.234413		-0.021717		0.639736		0.483489		63.531822		-6.594972		-6.015193		-94.381802		6.673417		-17.154773		16.538481		64.315160		-0.638136		-1.981248		-93.943083		4.864969		-4.462758		29.010704		-44.887244		0.873066		9.943365		-2.448297		4.770419		-12.888623		-11.676832		-18.802755		-24.946589		50.587644		120.181971		-16.912773		-7.078080		-29.955267		-36.652583		-20.975067		-22.985546		66.328735		131.893944		-33.127769		-19.554808		-12.906729		
3.494091		-0.605811		1.662777		94.954768		-0.020914		0.633062		0.482685		64.567304		-6.149683		-5.228043		-96.142585		5.836124		-17.796357		16.379814		65.274749		-0.568841		-2.126863		-95.778542		3.700679		-5.433885		29.141661		-46.240112		0.401301		10.160667		-1.263468		4.812519		-13.054595		-9.662064		-19.215437		-25.238204		51.287057		120.159635		-17.150810		-7.237973		-30.259669		-33.387668		-21.194168		-22.040449		66.499455		132.452148		-33.613678		-19.758391		-12.904793		
3.497273		-0.767705		2.003540		94.754450		-0.020130		0.626943		0.482132		65.453259		-5.712232		-4.568889		-97.736558		5.031962		-17.965516		16.262768		66.148902		-0.473584		-2.112500		-97.467508		2.415903		-6.025962		29.238533		-47.795128		0.030673		10.370552		0.569109		4.952728		-12.738842		-7.650554		-19.663910		-25.514208		52.171049		120.135284		-17.523643		-7.457725		-30.488276		-30.077331		-21.330519		-21.205585		66.801276		133.193862		-33.895503		-20.056520		-12.834886		
3.500455		-0.990306		2.468605		94.561376		-0.019333		0.621331		0.481276		66.135381		-5.307797		-3.879763		-99.296517		4.388394		-18.123813		16.092299		66.792481		-0.340087		-2.111354		-99.065819		1.388148		-6.807953		29.388871		-49.388056		-0.397721		10.485060		1.928726		5.147569		-12.740033		-5.569090		-20.152897		-25.610656		52.941123		120.088486		-17.788120		-7.628905		-30.652345		-26.790394		-21.467916		-20.316701		67.118617		133.834606		-34.217530		-20.245658		-12.596884		
3.503636		-1.192645		2.946025		94.472989		-0.018569		0.615832		0.480332		66.755141		-4.979734		-3.256780		-100.835267		4.010849		-17.956508		15.928364		67.415010		-0.111064		-1.963013		-100.623102		0.586984		-7.207948		29.537258		-50.937604		-0.759137		10.429260		3.089072		5.419049		-12.654702		-3.411418		-20.653640		-25.517263		53.675185		119.995149		-18.015021		-7.808960		-30.711544		-23.659881		-21.542472		-19.561560		67.578661		134.330638		-34.471259		-20.413378		-12.292577		
3.506818		-1.414704		3.431068		94.431300		-0.017896		0.610578		0.479362		67.315728		-4.719305		-2.628415		-102.323689		3.776482		-17.561132		15.767543		67.980416		0.174852		-1.762977		-102.099888		-0.112897		-7.350670		29.684572		-52.483800		-1.109498		10.264015		4.214612		5.773248		-12.538289		-1.182631		-21.178741		-25.263543		54.364606		119.860790		-18.270275		-7.990158		-30.710635		-20.585252		-21.575339		-18.868748		68.093283		134.813013		-34.741803		-20.590805		-11.959040		
